<mxfile host="app.diagrams.net" modified="2023-08-02T03:50:29.156Z" agent="Mozilla/5.0 (Macintosh; Intel Mac OS X 10_15_7) AppleWebKit/537.36 (KHTML, like Gecko) Chrome/114.0.0.0 Safari/537.36" etag="OjIz_J6hHyW9qPkSHZgt" version="21.6.6" type="github">
  <diagram name="第 1 页" id="AqDrbWPP_WukQ064cQt7">
    <mxGraphModel dx="19080" dy="12320" grid="1" gridSize="10" guides="1" tooltips="1" connect="1" arrows="1" fold="1" page="0" pageScale="1" pageWidth="1169" pageHeight="827" math="0" shadow="0">
      <root>
        <mxCell id="0" />
        <mxCell id="1" parent="0" />
      </root>
    </mxGraphModel>
  </diagram>
</mxfile>
